<?xml version="1.0" encoding="utf-8"?>
<!-- Generator: Adobe Illustrator 22.0.1, SVG Export Plug-In . SVG Version: 6.00 Build 0)  -->
<svg version="1.1" id="logo" xmlns="http://www.w3.org/2000/svg" xmlns:xlink="http://www.w3.org/1999/xlink" x="0px" y="0px"
	 viewBox="0 0 150 20" style="enable-background:new 0 0 150 20;" xml:space="preserve">
<style type="text/css">
	.st0{fill:#6CBB6B;}
</style>
<g>
	<g>
		<path class="st0" d="M14.2,4.7l-5.1-3c-0.8-0.5-1.8-0.5-2.6,0l-5.1,3C0.5,5.1,0,6,0,6.9v5.9c0,0.9,0.5,1.8,1.3,2.3l5.1,3
			c0.4,0.2,0.9,0.3,1.3,0.3c0.5,0,0.9-0.1,1.3-0.3l5.1-3c0.8-0.5,1.3-1.4,1.3-2.3V6.9C15.5,6,15,5.1,14.2,4.7z M12.1,12.4l-4.3,2.5
			v-10l4.3,2.5V12.4z"/>
		<path class="st0" d="M25,18.5c-0.5,0-0.9-0.1-1.3-0.3l-5.1-3c-0.8-0.5-1.3-1.4-1.3-2.3V6.9c0-0.9,0.5-1.8,1.3-2.3l5.1-3
			c0.8-0.5,1.8-0.5,2.6,0l5.1,3c0.8,0.5,1.3,1.4,1.3,2.3v5.9c0,0.9-0.5,1.8-1.3,2.3l-5.1,3C25.9,18.3,25.5,18.5,25,18.5z M20.7,12.4
			l4.3,2.5l4.3-2.5v-5L25,4.9l-4.3,2.5V12.4z M29.8,12.2C29.8,12.2,29.8,12.2,29.8,12.2L29.8,12.2z"/>
		<path class="st0" d="M98.5,8.4h2.9c0.1,0,0.3-0.1,0.3-0.3V7.2c0-0.9-0.5-1.8-1.3-2.3L95.3,2c-0.8-0.5-1.8-0.5-2.6,0l-5.1,2.9
			c-0.8,0.5-1.3,1.4-1.3,2.3v5.9c0,0.9,0.5,1.8,1.3,2.3l5.1,2.9c0.4,0.2,0.9,0.3,1.3,0.3c0.5,0,0.9-0.1,1.3-0.3l5.1-2.9
			c0.8-0.5,1.3-1.4,1.3-2.3v-0.8c0-0.1-0.1-0.3-0.3-0.3h-2.9c-0.1,0-0.3,0.1-0.3,0.3v0.4L94,15.1l-4.3-2.5v-0.7
			c0.1,0,0.1,0.1,0.2,0.1H95c0.3,0,0.5-0.2,0.5-0.5V9c0-0.3-0.2-0.5-0.5-0.5h-5.1c-0.1,0-0.2,0-0.2,0.1V7.7L94,5.2l4.3,2.5v0.5
			C98.2,8.3,98.4,8.4,98.5,8.4z"/>
		<path class="st0" d="M142.2,18.6c-0.5,0-0.9-0.1-1.3-0.3l-5.1-3c-0.8-0.5-1.3-1.4-1.3-2.3V7c0-0.9,0.5-1.8,1.3-2.3l5.1-3
			c0.8-0.5,1.8-0.5,2.6,0l5.1,3c0.8,0.5,1.3,1.4,1.3,2.3V13c0,0.9-0.5,1.8-1.3,2.3l-5.1,3C143.2,18.5,142.7,18.6,142.2,18.6z
			 M137.9,12.5l4.3,2.5l4.3-2.5v-5L142.2,5l-4.3,2.5V12.5z M147,12.3C147,12.3,147,12.3,147,12.3L147,12.3z"/>
		<path class="st0" d="M83.3,4.7l-5.1-3c-0.8-0.5-1.8-0.5-2.6,0l-5.1,3c-0.8,0.5-1.3,1.4-1.3,2.3v2.7c0,0.3,0.2,0.5,0.5,0.5H72
			c0.3,0,0.5-0.2,0.5-0.5V7.4l2.6-1.5v12.1c0,0.3,0.2,0.5,0.5,0.5H78c0.3,0,0.5-0.2,0.5-0.5V5.9l2.6,1.5v2.2c0,0.3,0.2,0.5,0.5,0.5
			h2.4c0.3,0,0.5-0.2,0.5-0.5V6.9C84.6,6,84.1,5.1,83.3,4.7z"/>
		<path class="st0" d="M111.2,18.6c-0.5,0-0.9-0.1-1.3-0.3l-5.1-3c-0.8-0.5-1.3-1.4-1.3-2.3V7c0-0.9,0.5-1.8,1.3-2.3l2.4-1.4
			c0.2-0.1,0.6-0.1,0.7,0.2l1.2,2.1c0.1,0.2,0.1,0.6-0.2,0.7l-1.9,1.1v5l4.3,2.5l4.7-2.7c0.2-0.1,0.6-0.1,0.7,0.2l1.2,2.1
			c0.1,0.2,0.1,0.6-0.2,0.7l-5.1,3C112.1,18.5,111.6,18.6,111.2,18.6z"/>
		<path class="st0" d="M67.4,7.1c0-0.9-0.5-1.8-1.3-2.3l-5.1-3c-0.8-0.5-1.8-0.5-2.6,0l-5.1,3c-0.8,0.5-1.3,1.4-1.3,2.3V13
			c0,0.9,0.5,1.8,1.3,2.3l5.1,3c0.4,0.2,0.9,0.3,1.3,0.3c0.5,0,0.9-0.1,1.3-0.3l3-1.7v1c0,0.3,0.2,0.5,0.5,0.5h2.4
			c0.3,0,0.5-0.2,0.5-0.5v-4.3c0-0.1,0-0.1,0-0.2V7.1z M59.7,15.1l-4.3-2.5v-5l4.3-2.5L64,7.6v3.3c0,0,0,0.1,0,0.1v1.5L59.7,15.1z"
			/>
		<path class="st0" d="M45.3,16.7l-1.2-2.1c-0.1-0.2-0.1-0.6,0.2-0.7l2.4-1.4v-5L42.4,5l-4.3,2.5v5l2.3,1.4c0.2,0.1,0.3,0.5,0.2,0.7
			l-1.2,2.1c-0.1,0.2-0.5,0.3-0.7,0.2l-2.8-1.6c-0.8-0.5-1.3-1.4-1.3-2.3V7c0-0.9,0.5-1.8,1.3-2.3l5.1-3c0.8-0.5,1.8-0.5,2.6,0
			l5.1,3c0.8,0.5,1.3,1.4,1.3,2.3V13c0,0.9-0.5,1.8-1.3,2.3L46,16.9C45.8,17,45.5,16.9,45.3,16.7z"/>
		<path class="st0" d="M126.7,18.6c-0.5,0-0.9-0.1-1.3-0.3l-5.1-3c-0.8-0.5-1.3-1.4-1.3-2.3V7c0-0.9,0.5-1.8,1.3-2.3l2.4-1.4
			c0.2-0.1,0.6-0.1,0.7,0.2l1.2,2.1c0.1,0.2,0.1,0.6-0.2,0.7l-1.9,1.1v5l4.3,2.5l4.7-2.7c0.2-0.1,0.6-0.1,0.7,0.2l1.2,2.1
			c0.1,0.2,0.1,0.6-0.2,0.7l-5.1,3C127.6,18.5,127.2,18.6,126.7,18.6z"/>
	</g>
</g>
</svg>
