<?xml version="1.0" encoding="utf-8"?>
<!-- Generator: Adobe Illustrator 15.1.0, SVG Export Plug-In . SVG Version: 6.00 Build 0)  -->
<!DOCTYPE svg PUBLIC "-//W3C//DTD SVG 1.1//EN" "http://www.w3.org/Graphics/SVG/1.1/DTD/svg11.dtd">
<svg version="1.1" id="レイヤー_1" xmlns="http://www.w3.org/2000/svg" xmlns:xlink="http://www.w3.org/1999/xlink" x="0px"
	 y="0px" width="180px" height="47px" viewBox="0 0 180 47" enable-background="new 0 0 180 47" xml:space="preserve">
<g>
	<defs>
		<path id="SVGID_1_" d="M177.585,35.133c0.823-0.739,0.796-2.034-0.041-2.759c-3.755-3.247-14.938-11.204-34.385-11.207
			c-24.435-0.004-74.275-1.373-95.692-0.014c-19.124,1.214-36.851,5.021-40.428,5.821c-0.383,0.086-0.654,0.426-0.654,0.82
			l-0.001,0.145c0.001,0.636,0.336,1.226,0.886,1.546c3.802,2.213,20.164,10.357,54.99,10.361
			c40.302,0.006,93.806,1.477,102.507,0.453C171.388,39.521,175.438,37.063,177.585,35.133"/>
	</defs>
	<clipPath id="SVGID_2_">
		<use xlink:href="#SVGID_1_"  overflow="visible"/>
	</clipPath>
	<linearGradient id="SVGID_3_" gradientUnits="userSpaceOnUse" x1="558.8066" y1="465.8496" x2="558.8066" y2="-302.1499">
		<stop  offset="0" style="stop-color:#8BFFAC"/>
		<stop  offset="1" style="stop-color:#0C3FFF"/>
	</linearGradient>
	<rect x="-124.193" y="-302.15" clip-path="url(#SVGID_2_)" fill="url(#SVGID_3_)" width="1366" height="768"/>
</g>
<g id="jet">
	<g id="body">
		<path fill="#3FA9F5" d="M177.585,35.133c0.823-0.739,0.796-2.034-0.041-2.759c-3.755-3.247-14.938-11.204-34.385-11.207
			c-24.435-0.004-74.275-1.373-95.692-0.014c-19.124,1.214-36.851,5.021-40.428,5.821c-0.383,0.086-0.654,0.426-0.654,0.82
			l-0.001,0.145c0.001,0.636,0.336,1.226,0.886,1.546c3.802,2.213,20.164,10.357,54.99,10.361
			c40.302,0.006,93.806,1.477,102.507,0.453C171.388,39.521,175.438,37.063,177.585,35.133"/>
		<g>
			<defs>
				<path id="SVGID_4_" d="M177.585,35.133c0.823-0.739,0.796-2.034-0.041-2.759c-3.755-3.247-14.938-11.204-34.385-11.207
					c-24.435-0.004-74.275-1.373-95.692-0.014c-19.124,1.214-36.851,5.021-40.428,5.821c-0.383,0.086-0.654,0.426-0.654,0.82
					l-0.001,0.145c0.001,0.636,0.336,1.226,0.886,1.546c3.802,2.213,20.164,10.357,54.99,10.361
					c40.302,0.006,93.806,1.477,102.507,0.453C171.388,39.521,175.438,37.063,177.585,35.133"/>
			</defs>
			<clipPath id="SVGID_5_">
				<use xlink:href="#SVGID_4_"  overflow="visible"/>
			</clipPath>
			<linearGradient id="SVGID_6_" gradientUnits="userSpaceOnUse" x1="6.437" y1="45.7197" x2="208.6055" y2="45.7197">
				<stop  offset="0" style="stop-color:#84F2A3"/>
				<stop  offset="1" style="stop-color:#0C3FFF"/>
			</linearGradient>
			<path clip-path="url(#SVGID_5_)" fill="url(#SVGID_6_)" d="M207.943,52.913c0.941-0.763,0.865-2.15-0.145-2.956
				c-4.526-3.607-17.948-12.516-40.81-13.193c-28.724-0.854-87.361-4.051-112.49-3.339c-22.438,0.636-43.145,4.096-47.321,4.829
				c-0.447,0.079-0.754,0.434-0.74,0.854l0.004,0.155c0.023,0.682,0.437,1.323,1.095,1.686c4.547,2.502,24.063,11.79,65.004,13.006
				C119.916,55.36,182.861,58.793,193.056,58C200.811,57.396,205.485,54.905,207.943,52.913"/>
		</g>
		<linearGradient id="SVGID_7_" gradientUnits="userSpaceOnUse" x1="8.7979" y1="24.8892" x2="173.2793" y2="24.8892">
			<stop  offset="0" style="stop-color:#8BFFAC"/>
			<stop  offset="1" style="stop-color:#0C3FFF"/>
		</linearGradient>
		<path fill="url(#SVGID_7_)" d="M47.466,23.052c21.417-1.36,71.259,0.01,95.692,0.014c13.56,0.002,23.854,3.153,30.121,6.161
			c-5.647-3.603-15.569-8.057-30.12-8.06c-24.435-0.003-74.275-1.373-95.692-0.014c-16.943,1.076-32.788,4.186-38.669,5.438
			C17.187,25.536,32.997,23.97,47.466,23.052"/>
	</g>
	<g id="wing-rightback">
		<g id="shadow">
			<defs>
				
					<rect id="SVGID_8_" x="10.656" y="22.647" transform="matrix(-0.9575 -0.2885 0.2885 -0.9575 36.3649 63.211)" width="24.372" height="12.557"/>
			</defs>
			<clipPath id="SVGID_9_">
				<use xlink:href="#SVGID_8_"  overflow="visible"/>
			</clipPath>
			<path clip-path="url(#SVGID_9_)" fill="#12D8FF" d="M36.319,26.43L14.71,26.734l-5.131,3.969
				c2.293,1.111,5.877,2.609,10.928,4.07L36.319,26.43z"/>
		</g>
		<linearGradient id="SVGID_10_" gradientUnits="userSpaceOnUse" x1="2.1509" y1="26.2856" x2="36.3193" y2="26.2856">
			<stop  offset="0" style="stop-color:#8BFFAC"/>
			<stop  offset="1" style="stop-color:#0C3FFF"/>
		</linearGradient>
		<path fill="url(#SVGID_10_)" d="M34.081,26.992l2.239-0.562c0,0-3.553-0.849-11.146-0.85c-7.594-0.001-23.023,0.845-23.023,0.845
			L34.081,26.992z"/>
		<path fill="#D7E7EB" d="M36.319,26.43c0,0-3.066,1.974-11.535,1.973c-7.369-0.002-19.049-0.979-21.96-1.234
			c-0.383-0.034-0.674-0.354-0.674-0.737l0-0.007L36.319,26.43z"/>
		<g>
			<defs>
				
					<rect id="SVGID_11_" x="2.8" y="21.489" transform="matrix(-0.9575 -0.2885 0.2885 -0.9575 29.8035 57.7584)" width="32.718" height="10.388"/>
			</defs>
			<clipPath id="SVGID_12_">
				<use xlink:href="#SVGID_11_"  overflow="visible"/>
			</clipPath>
			<linearGradient id="SVGID_13_" gradientUnits="userSpaceOnUse" x1="2.1504" y1="27.4141" x2="36.3193" y2="27.4141">
				<stop  offset="0" style="stop-color:#8BFFAC"/>
				<stop  offset="1" style="stop-color:#0C3FFF"/>
			</linearGradient>
			<path clip-path="url(#SVGID_12_)" fill="url(#SVGID_13_)" d="M36.319,26.43c0,0-3.066,1.974-11.535,1.973
				c-7.369-0.002-19.049-0.979-21.96-1.234c-0.383-0.034-0.674-0.354-0.674-0.737l0-0.007L36.319,26.43z"/>
		</g>
	</g>
	<g id="backwing">
		<linearGradient id="SVGID_14_" gradientUnits="userSpaceOnUse" x1="18.231" y1="26.4258" x2="18.231" y2="0.5005">
			<stop  offset="0" style="stop-color:#8BFFAC"/>
			<stop  offset="1" style="stop-color:#0C3FFF"/>
		</linearGradient>
		<path fill="url(#SVGID_14_)" d="M34.649,22.334L34.649,22.334c0,0-16.287-12.389-23.685-21.833L1.813,0.5l7.768,25.925
			C14.258,25.447,23.623,23.641,34.649,22.334"/>
		<path fill="#FFFFFF" d="M27.658,16.717l-22.368-4.61l1.135,3.787l22.767,2.095C28.702,17.585,28.189,17.161,27.658,16.717"/>
		<polygon fill="#FFFFFF" points="4.154,8.312 4.751,10.305 19.501,13.684 		"/>
	</g>
	<linearGradient id="cockpit_1_" gradientUnits="userSpaceOnUse" x1="157.1436" y1="28.3496" x2="173.7656" y2="28.3496">
		<stop  offset="0" style="stop-color:#8BFFAC"/>
		<stop  offset="1" style="stop-color:#0C3FFF"/>
	</linearGradient>
	<polygon id="cockpit" fill="url(#cockpit_1_)" points="173.766,29.85 160.01,29.85 157.144,26.85 168.57,26.85 	"/>
	<g id="window">
		<linearGradient id="SVGID_15_" gradientUnits="userSpaceOnUse" x1="144.8066" y1="27.8496" x2="148.8066" y2="27.8496">
			<stop  offset="0" style="stop-color:#8BFFAC"/>
			<stop  offset="1" style="stop-color:#0C3FFF"/>
		</linearGradient>
		<rect x="144.807" y="24.85" fill="url(#SVGID_15_)" width="4" height="6"/>
		<linearGradient id="SVGID_16_" gradientUnits="userSpaceOnUse" x1="136.8066" y1="28.3496" x2="139.8066" y2="28.3496">
			<stop  offset="0" style="stop-color:#8BFFAC"/>
			<stop  offset="1" style="stop-color:#0C3FFF"/>
		</linearGradient>
		<rect x="136.807" y="26.85" fill="url(#SVGID_16_)" width="3" height="3"/>
		<linearGradient id="SVGID_17_" gradientUnits="userSpaceOnUse" x1="128.8066" y1="28.3496" x2="131.8066" y2="28.3496">
			<stop  offset="0" style="stop-color:#8BFFAC"/>
			<stop  offset="1" style="stop-color:#0C3FFF"/>
		</linearGradient>
		<rect x="128.807" y="26.85" fill="url(#SVGID_17_)" width="3" height="3"/>
		<linearGradient id="SVGID_18_" gradientUnits="userSpaceOnUse" x1="119.8066" y1="28.3496" x2="122.8066" y2="28.3496">
			<stop  offset="0" style="stop-color:#8BFFAC"/>
			<stop  offset="1" style="stop-color:#0C3FFF"/>
		</linearGradient>
		<rect x="119.807" y="26.85" fill="url(#SVGID_18_)" width="3" height="3"/>
		<linearGradient id="SVGID_19_" gradientUnits="userSpaceOnUse" x1="111.8066" y1="28.3496" x2="114.8066" y2="28.3496">
			<stop  offset="0" style="stop-color:#8BFFAC"/>
			<stop  offset="1" style="stop-color:#0C3FFF"/>
		</linearGradient>
		<rect x="111.807" y="26.85" fill="url(#SVGID_19_)" width="3" height="3"/>
		<linearGradient id="SVGID_20_" gradientUnits="userSpaceOnUse" x1="94.8066" y1="28.3496" x2="97.8066" y2="28.3496">
			<stop  offset="0" style="stop-color:#8BFFAC"/>
			<stop  offset="1" style="stop-color:#0C3FFF"/>
		</linearGradient>
		<rect x="94.807" y="26.85" fill="url(#SVGID_20_)" width="3" height="3"/>
		<linearGradient id="SVGID_21_" gradientUnits="userSpaceOnUse" x1="85.8066" y1="28.3496" x2="88.8066" y2="28.3496">
			<stop  offset="0" style="stop-color:#8BFFAC"/>
			<stop  offset="1" style="stop-color:#0C3FFF"/>
		</linearGradient>
		<rect x="85.807" y="26.85" fill="url(#SVGID_21_)" width="3" height="3"/>
		<linearGradient id="SVGID_22_" gradientUnits="userSpaceOnUse" x1="77.8066" y1="28.3496" x2="80.8066" y2="28.3496">
			<stop  offset="0" style="stop-color:#8BFFAC"/>
			<stop  offset="1" style="stop-color:#0C3FFF"/>
		</linearGradient>
		<rect x="77.807" y="26.85" fill="url(#SVGID_22_)" width="3" height="3"/>
		<linearGradient id="SVGID_23_" gradientUnits="userSpaceOnUse" x1="68.8066" y1="28.3496" x2="71.8066" y2="28.3496">
			<stop  offset="0" style="stop-color:#8BFFAC"/>
			<stop  offset="1" style="stop-color:#0C3FFF"/>
		</linearGradient>
		<rect x="68.807" y="26.85" fill="url(#SVGID_23_)" width="3" height="3"/>
		<linearGradient id="SVGID_24_" gradientUnits="userSpaceOnUse" x1="51.8066" y1="28.3496" x2="54.8066" y2="28.3496">
			<stop  offset="0" style="stop-color:#8BFFAC"/>
			<stop  offset="1" style="stop-color:#0C3FFF"/>
		</linearGradient>
		<rect x="51.807" y="26.85" fill="url(#SVGID_24_)" width="3" height="3"/>
		<linearGradient id="SVGID_25_" gradientUnits="userSpaceOnUse" x1="43.8066" y1="28.3496" x2="46.8066" y2="28.3496">
			<stop  offset="0" style="stop-color:#8BFFAC"/>
			<stop  offset="1" style="stop-color:#0C3FFF"/>
		</linearGradient>
		<rect x="43.807" y="26.85" fill="url(#SVGID_25_)" width="3" height="3"/>
		<linearGradient id="SVGID_26_" gradientUnits="userSpaceOnUse" x1="102.8066" y1="27.8496" x2="106.8066" y2="27.8496">
			<stop  offset="0" style="stop-color:#8BFFAC"/>
			<stop  offset="1" style="stop-color:#0C3FFF"/>
		</linearGradient>
		<rect x="102.807" y="24.85" fill="url(#SVGID_26_)" width="4" height="6"/>
		<linearGradient id="SVGID_27_" gradientUnits="userSpaceOnUse" x1="59.8066" y1="27.8496" x2="63.8066" y2="27.8496">
			<stop  offset="0" style="stop-color:#8BFFAC"/>
			<stop  offset="1" style="stop-color:#0C3FFF"/>
		</linearGradient>
		<rect x="59.807" y="24.85" fill="url(#SVGID_27_)" width="4" height="6"/>
	</g>
	<g id="wing">
		<linearGradient id="SVGID_28_" gradientUnits="userSpaceOnUse" x1="53.1895" y1="39.6396" x2="133.1006" y2="39.6396">
			<stop  offset="0" style="stop-color:#8BFFAC"/>
			<stop  offset="1" style="stop-color:#0C3FFF"/>
		</linearGradient>
		<polygon fill="url(#SVGID_28_)" points="133.101,35.008 71.179,33.297 53.189,45.982 79.108,45.938 		"/>
		<polygon fill="#0A3CC6" points="127.941,34.865 66.021,32.724 48.03,45.982 73.949,45.938 		"/>
		<linearGradient id="SVGID_29_" gradientUnits="userSpaceOnUse" x1="46.5186" y1="43.8486" x2="77.5859" y2="43.8486">
			<stop  offset="0" style="stop-color:#8BFFAC"/>
			<stop  offset="1" style="stop-color:#0C3FFF"/>
		</linearGradient>
		<polygon fill="url(#SVGID_29_)" points="77.586,45.141 70.773,41.85 46.519,41.85 73.949,45.848 		"/>
		<linearGradient id="SVGID_30_" gradientUnits="userSpaceOnUse" x1="60.2339" y1="45.877" x2="60.2339" y2="41.8496">
			<stop  offset="0" style="stop-color:#8BFFAC"/>
			<stop  offset="1" style="stop-color:#0C3FFF"/>
		</linearGradient>
		<polygon fill="url(#SVGID_30_)" points="73.949,45.877 70.773,41.85 46.519,41.85 48.134,45.789 		"/>
	</g>
</g>
</svg>
