<?xml version="1.0" encoding="utf-8"?>
<!-- Generator: Adobe Illustrator 15.1.0, SVG Export Plug-In . SVG Version: 6.00 Build 0)  -->
<!DOCTYPE svg PUBLIC "-//W3C//DTD SVG 1.1//EN" "http://www.w3.org/Graphics/SVG/1.1/DTD/svg11.dtd">
<svg version="1.1" id="レイヤー_1" xmlns="http://www.w3.org/2000/svg" xmlns:xlink="http://www.w3.org/1999/xlink" x="0px"
	 y="0px" width="174px" height="61px" viewBox="0 0 174 61" enable-background="new 0 0 174 61" xml:space="preserve">
<linearGradient id="SVGID_1_" gradientUnits="userSpaceOnUse" x1="0" y1="30.5" x2="174" y2="30.5">
	<stop  offset="0" style="stop-color:#FFFFFF"/>
	<stop  offset="1" style="stop-color:#FFFFFF;stop-opacity:0"/>
</linearGradient>
<path fill="url(#SVGID_1_)" d="M164,0H62c-5.5,0-10,4.5-10,10s4.5,10,10,10h13c5.523,0,10,4.477,10,10v1c0,5.523-4.477,10-10,10H10
	C4.5,41,0,45.5,0,51s4.5,10,10,10h131c5.5,0,10-4.5,10-10s-4.5-10-10-10h-17c-5.523,0-10-4.477-10-10v-1c0-5.523,4.477-10,10-10h40
	c5.5,0,10-4.5,10-10S169.5,0,164,0z"/>
</svg>
