<?xml version="1.0" encoding="utf-8"?>
<!-- Generator: Adobe Illustrator 15.1.0, SVG Export Plug-In . SVG Version: 6.00 Build 0)  -->
<!DOCTYPE svg PUBLIC "-//W3C//DTD SVG 1.1//EN" "http://www.w3.org/Graphics/SVG/1.1/DTD/svg11.dtd">
<svg version="1.1" id="cloud2" xmlns="http://www.w3.org/2000/svg" xmlns:xlink="http://www.w3.org/1999/xlink" x="0px" y="0px"
	 width="132.974px" height="45px" viewBox="0 0 132.974 45" enable-background="new 0 0 132.974 45" xml:space="preserve">
<linearGradient id="SVGID_1_" gradientUnits="userSpaceOnUse" x1="21.1445" y1="22.5" x2="153.5615" y2="22.5" gradientTransform="matrix(-1 0 0 1 153.8398 0)">
	<stop  offset="0" style="stop-color:#FFFFFF"/>
	<stop  offset="1" style="stop-color:#FFFFFF;stop-opacity:0"/>
</linearGradient>
<path fill="url(#SVGID_1_)" d="M7.658,0h77.28c4.059,0,7.381,3.44,7.381,7.5S88.996,15,84.938,15h-9.594
	c-4.076,0-7.424,3.065-7.424,7.141v0.738c0,4.077,3.348,7.121,7.424,7.121h49.971c4.061,0,7.381,3.439,7.381,7.5
	c0,4.059-3.32,7.5-7.381,7.5H26.633c-4.059,0-7.38-3.441-7.38-7.5c0-4.061,3.321-7.5,7.38-7.5h12.546
	c4.077,0,7.741-3.044,7.741-7.121v-0.738c0-4.076-3.664-7.141-7.741-7.141H7.658c-4.059,0-7.38-3.44-7.38-7.5S3.599,0,7.658,0z"/>
</svg>
